<?xml version="1.0" encoding="UTF-8"?>
<svg xmlns="http://www.w3.org/2000/svg" xmlns:xlink="http://www.w3.org/1999/xlink" width="135.552pt" height="156.059pt" viewBox="0 0 135.552 156.059">
<defs>
<g>
<g id="glyph-0-0">
<path d="M 5.5 -6.34375 C 5.5 -6.796875 5.046875 -7.03125 4.640625 -7.03125 C 4.296875 -7.03125 3.671875 -6.84375 3.375 -5.859375 C 3.3125 -5.65625 3.28125 -5.546875 3.046875 -4.296875 L 2.359375 -4.296875 C 2.15625 -4.296875 2.046875 -4.296875 2.046875 -4.109375 C 2.046875 -3.984375 2.140625 -3.984375 2.328125 -3.984375 L 2.984375 -3.984375 L 2.25 -0.046875 C 2.0625 0.921875 1.890625 1.828125 1.375 1.828125 C 1.328125 1.828125 1.09375 1.828125 0.890625 1.640625 C 1.359375 1.609375 1.453125 1.25 1.453125 1.109375 C 1.453125 0.875 1.265625 0.75 1.078125 0.75 C 0.8125 0.75 0.53125 0.984375 0.53125 1.359375 C 0.53125 1.796875 0.96875 2.046875 1.375 2.046875 C 1.921875 2.046875 2.328125 1.453125 2.5 1.078125 C 2.828125 0.453125 3.046875 -0.75 3.0625 -0.828125 L 3.65625 -3.984375 L 4.515625 -3.984375 C 4.71875 -3.984375 4.8125 -3.984375 4.8125 -4.1875 C 4.8125 -4.296875 4.71875 -4.296875 4.546875 -4.296875 L 3.71875 -4.296875 C 3.828125 -4.875 3.8125 -4.859375 3.921875 -5.4375 C 3.96875 -5.640625 4.109375 -6.34375 4.171875 -6.46875 C 4.25 -6.65625 4.421875 -6.8125 4.640625 -6.8125 C 4.671875 -6.8125 4.9375 -6.8125 5.125 -6.625 C 4.6875 -6.59375 4.578125 -6.234375 4.578125 -6.09375 C 4.578125 -5.859375 4.765625 -5.734375 4.953125 -5.734375 C 5.21875 -5.734375 5.5 -5.96875 5.5 -6.34375 Z M 5.5 -6.34375 "/>
</g>
<g id="glyph-0-1">
<path d="M 5.875 -0.59375 C 5.875 -0.671875 5.8125 -0.703125 5.75 -0.703125 C 5.6875 -0.703125 5.65625 -0.671875 5.625 -0.59375 C 5.4375 -0.109375 5.0625 -0.109375 5.0625 -0.109375 C 4.75 -0.109375 4.75 -0.890625 4.75 -1.125 C 4.75 -1.328125 4.75 -1.359375 4.859375 -1.46875 C 5.796875 -2.65625 6 -3.8125 6 -3.8125 C 6 -3.8125 5.984375 -3.921875 5.875 -3.921875 C 5.78125 -3.921875 5.78125 -3.890625 5.734375 -3.703125 C 5.546875 -3.078125 5.21875 -2.328125 4.75 -1.734375 L 4.75 -2.359375 C 4.75 -3.921875 3.828125 -4.40625 3.09375 -4.40625 C 1.71875 -4.40625 0.40625 -2.984375 0.40625 -1.578125 C 0.40625 -0.640625 1 0.109375 2.03125 0.109375 C 2.65625 0.109375 3.375 -0.125 4.125 -0.734375 C 4.25 -0.203125 4.578125 0.109375 5.03125 0.109375 C 5.5625 0.109375 5.875 -0.4375 5.875 -0.59375 Z M 4.09375 -0.984375 C 3.203125 -0.21875 2.4375 -0.109375 2.046875 -0.109375 C 1.453125 -0.109375 1.140625 -0.5625 1.140625 -1.203125 C 1.140625 -1.6875 1.40625 -2.765625 1.71875 -3.265625 C 2.1875 -4 2.734375 -4.1875 3.078125 -4.1875 C 4.0625 -4.1875 4.0625 -2.875 4.0625 -2.109375 C 4.0625 -1.734375 4.0625 -1.15625 4.09375 -0.984375 Z M 4.09375 -0.984375 "/>
</g>
<g id="glyph-1-0">
<path d="M 6.109375 -4.3125 C 6.109375 -4.421875 6 -4.421875 5.875 -4.421875 L 5.609375 -4.421875 C 5.015625 -4.421875 4.828125 -3.9375 4.828125 -3.171875 C 4.8125 -2.4375 4.5625 -1.53125 3.609375 -1.328125 L 3.609375 -4.796875 C 3.609375 -5.0625 3.609375 -5.171875 4.34375 -5.171875 L 4.609375 -5.171875 L 4.609375 -5.4375 C 4.25 -5.421875 3.65625 -5.421875 3.265625 -5.421875 C 2.890625 -5.421875 2.28125 -5.421875 1.921875 -5.4375 L 1.921875 -5.171875 L 2.171875 -5.171875 C 2.921875 -5.171875 2.921875 -5.0625 2.921875 -4.796875 L 2.921875 -1.34375 C 1.796875 -1.59375 1.75 -2.78125 1.75 -3.328125 C 1.75 -3.90625 1.53125 -4.421875 0.96875 -4.421875 L 0.703125 -4.421875 C 0.578125 -4.421875 0.46875 -4.421875 0.46875 -4.3125 C 0.46875 -4.21875 0.5625 -4.203125 0.59375 -4.203125 C 1.0625 -4.140625 1.078125 -3.421875 1.078125 -3.359375 C 1.078125 -2.890625 1.09375 -1.3125 2.921875 -1.09375 L 2.921875 -0.65625 C 2.921875 -0.375 2.921875 -0.265625 2.171875 -0.265625 L 1.921875 -0.265625 L 1.921875 0 C 2.28125 -0.03125 2.875 -0.03125 3.265625 -0.03125 C 3.640625 -0.03125 4.25 -0.03125 4.609375 0 L 4.609375 -0.265625 L 4.34375 -0.265625 C 3.609375 -0.265625 3.609375 -0.375 3.609375 -0.65625 L 3.609375 -1.09375 C 5.25 -1.265625 5.484375 -2.578125 5.5 -3.140625 C 5.5 -3.46875 5.5 -4.140625 5.953125 -4.203125 C 6.03125 -4.203125 6.109375 -4.21875 6.109375 -4.3125 Z M 6.109375 -4.3125 "/>
</g>
<g id="glyph-1-1">
<path d="M 2.8125 1.890625 C 2.8125 1.859375 2.8125 1.859375 2.703125 1.75 C 1.609375 0.71875 1.34375 -0.75 1.34375 -1.984375 C 1.34375 -4.28125 2.28125 -5.359375 2.6875 -5.734375 C 2.8125 -5.828125 2.8125 -5.84375 2.8125 -5.875 C 2.8125 -5.921875 2.78125 -5.96875 2.703125 -5.96875 C 2.578125 -5.96875 2.171875 -5.5625 2.109375 -5.5 C 1.046875 -4.375 0.828125 -2.953125 0.828125 -1.984375 C 0.828125 -0.203125 1.5625 1.234375 2.65625 1.984375 C 2.71875 1.984375 2.8125 1.984375 2.8125 1.890625 Z M 2.8125 1.890625 "/>
</g>
<g id="glyph-1-2">
<path d="M 2.46875 -1.984375 C 2.46875 -2.75 2.328125 -3.65625 1.84375 -4.59375 C 1.453125 -5.328125 0.71875 -5.96875 0.578125 -5.96875 C 0.5 -5.96875 0.484375 -5.921875 0.484375 -5.875 C 0.484375 -5.84375 0.484375 -5.828125 0.578125 -5.734375 C 1.6875 -4.671875 1.9375 -3.21875 1.9375 -1.984375 C 1.9375 0.296875 1 1.375 0.59375 1.75 C 0.484375 1.84375 0.484375 1.859375 0.484375 1.890625 C 0.484375 1.9375 0.5 1.984375 0.578125 1.984375 C 0.703125 1.984375 1.109375 1.578125 1.171875 1.515625 C 2.234375 0.390625 2.46875 -1.03125 2.46875 -1.984375 Z M 2.46875 -1.984375 "/>
</g>
<g id="glyph-1-3">
<path d="M 6.109375 -2.84375 C 6.109375 -3.015625 5.90625 -3.015625 5.796875 -3.015625 L 0.78125 -3.015625 C 0.65625 -3.015625 0.46875 -3.015625 0.46875 -2.84375 C 0.46875 -2.65625 0.625 -2.65625 0.75 -2.65625 L 5.828125 -2.65625 C 5.9375 -2.65625 6.109375 -2.65625 6.109375 -2.84375 Z M 6.109375 -1.140625 C 6.109375 -1.328125 5.9375 -1.328125 5.828125 -1.328125 L 0.75 -1.328125 C 0.625 -1.328125 0.46875 -1.328125 0.46875 -1.140625 C 0.46875 -0.96875 0.65625 -0.96875 0.78125 -0.96875 L 5.796875 -0.96875 C 5.90625 -0.96875 6.109375 -0.96875 6.109375 -1.140625 Z M 6.109375 -1.140625 "/>
</g>
<g id="glyph-2-0">
<path d="M 4.578125 -5.046875 C 4.578125 -5.421875 4.1875 -5.609375 3.8125 -5.609375 C 3.53125 -5.609375 3.03125 -5.484375 2.78125 -4.75 C 2.703125 -4.5625 2.703125 -4.546875 2.5 -3.4375 L 1.890625 -3.4375 C 1.734375 -3.4375 1.640625 -3.4375 1.640625 -3.28125 C 1.640625 -3.171875 1.75 -3.171875 1.875 -3.171875 L 2.453125 -3.171875 L 1.875 -0.078125 C 1.71875 0.71875 1.609375 1.40625 1.171875 1.40625 C 1.15625 1.40625 0.984375 1.40625 0.84375 1.3125 C 1.203125 1.21875 1.203125 0.875 1.203125 0.875 C 1.203125 0.6875 1.0625 0.578125 0.890625 0.578125 C 0.671875 0.578125 0.4375 0.765625 0.4375 1.0625 C 0.4375 1.40625 0.78125 1.625 1.171875 1.625 C 1.671875 1.625 2 1.109375 2.109375 0.921875 C 2.390625 0.390625 2.578125 -0.609375 2.59375 -0.6875 L 3.046875 -3.171875 L 3.796875 -3.171875 C 3.953125 -3.171875 4.046875 -3.171875 4.046875 -3.328125 C 4.046875 -3.4375 3.9375 -3.4375 3.8125 -3.4375 L 3.09375 -3.4375 L 3.390625 -4.96875 C 3.421875 -5.09375 3.4375 -5.1875 3.5625 -5.28125 C 3.671875 -5.375 3.734375 -5.390625 3.8125 -5.390625 C 3.9375 -5.390625 4.0625 -5.359375 4.171875 -5.296875 C 4.125 -5.28125 4.078125 -5.265625 4.046875 -5.234375 C 3.90625 -5.15625 3.8125 -5.015625 3.8125 -4.859375 C 3.8125 -4.671875 3.953125 -4.5625 4.125 -4.5625 C 4.359375 -4.5625 4.578125 -4.765625 4.578125 -5.046875 Z M 4.578125 -5.046875 "/>
</g>
<g id="glyph-2-1">
<path d="M 5.015625 -0.484375 C 5.015625 -0.578125 4.921875 -0.578125 4.90625 -0.578125 C 4.8125 -0.578125 4.796875 -0.546875 4.765625 -0.5 C 4.640625 -0.15625 4.375 -0.140625 4.328125 -0.140625 C 4.21875 -0.140625 4.09375 -0.140625 4.0625 -1.109375 C 4.8125 -1.921875 5.0625 -2.96875 5.0625 -3.03125 C 5.0625 -3.09375 5.015625 -3.125 4.953125 -3.125 C 4.84375 -3.125 4.84375 -3.09375 4.796875 -2.9375 C 4.5625 -2.125 4.09375 -1.5 4.0625 -1.5 C 4.0625 -1.5 4.046875 -1.703125 4.046875 -1.828125 C 4.03125 -3.234375 3.125 -3.515625 2.578125 -3.515625 C 1.453125 -3.515625 0.34375 -2.421875 0.34375 -1.296875 C 0.34375 -0.515625 0.90625 0.078125 1.75 0.078125 C 2.296875 0.078125 2.890625 -0.125 3.515625 -0.59375 C 3.703125 0.046875 4.15625 0.078125 4.296875 0.078125 C 4.75 0.078125 5.015625 -0.328125 5.015625 -0.484375 Z M 3.46875 -0.859375 C 2.90625 -0.34375 2.234375 -0.140625 1.765625 -0.140625 C 1.359375 -0.140625 1 -0.375 1 -1.015625 C 1 -1.296875 1.125 -2.125 1.5 -2.65625 C 1.8125 -3.09375 2.25 -3.296875 2.578125 -3.296875 C 3.015625 -3.296875 3.265625 -2.984375 3.359375 -2.5 C 3.484375 -1.953125 3.421875 -1.3125 3.46875 -0.859375 Z M 3.46875 -0.859375 "/>
</g>
<g id="glyph-2-2">
<path d="M 1.71875 -0.03125 C 1.71875 -0.53125 1.515625 -0.890625 1.171875 -0.890625 C 0.890625 -0.890625 0.734375 -0.65625 0.734375 -0.453125 C 0.734375 -0.21875 0.890625 0 1.171875 0 C 1.375 0 1.484375 -0.125 1.484375 -0.125 C 1.484375 0.390625 1.375 0.859375 0.890625 1.34375 C 0.859375 1.375 0.84375 1.390625 0.84375 1.421875 C 0.84375 1.484375 0.90625 1.53125 0.953125 1.53125 C 1.046875 1.53125 1.71875 0.90625 1.71875 -0.03125 Z M 1.71875 -0.03125 "/>
</g>
<g id="glyph-3-0">
<path d="M 2.8125 1.8125 C 2.8125 1.765625 2.78125 1.703125 2.765625 1.671875 L 1.3125 -1.984375 L 2.765625 -5.65625 C 2.78125 -5.6875 2.8125 -5.75 2.8125 -5.796875 C 2.8125 -5.890625 2.734375 -5.96875 2.625 -5.96875 C 2.5 -5.96875 2.46875 -5.890625 2.4375 -5.78125 L 0.96875 -2.140625 C 0.953125 -2.09375 0.9375 -2.046875 0.9375 -1.984375 C 0.9375 -1.9375 0.953125 -1.890625 0.96875 -1.84375 L 2.4375 1.796875 C 2.46875 1.90625 2.5 1.984375 2.625 1.984375 C 2.734375 1.984375 2.8125 1.90625 2.8125 1.8125 Z M 2.8125 1.8125 "/>
</g>
<g id="glyph-3-1">
<path d="M 2.34375 -1.984375 C 2.34375 -2.046875 2.328125 -2.09375 2.3125 -2.140625 L 0.859375 -5.78125 C 0.8125 -5.890625 0.78125 -5.96875 0.65625 -5.96875 C 0.546875 -5.96875 0.46875 -5.890625 0.46875 -5.796875 C 0.46875 -5.75 0.5 -5.6875 0.515625 -5.65625 L 1.96875 -1.984375 L 0.515625 1.671875 C 0.5 1.703125 0.46875 1.765625 0.46875 1.8125 C 0.46875 1.90625 0.546875 1.984375 0.65625 1.984375 C 0.78125 1.984375 0.8125 1.90625 0.859375 1.796875 L 2.3125 -1.84375 C 2.328125 -1.890625 2.34375 -1.9375 2.34375 -1.984375 Z M 2.34375 -1.984375 "/>
</g>
<g id="glyph-4-0">
<path d="M 7.953125 0.734375 C 7.953125 0.140625 7.453125 0.109375 7.265625 0.109375 C 5.171875 0.046875 5.15625 -0.4375 5.15625 -0.9375 L 5.15625 -3.578125 C 5.15625 -4 5.09375 -4.65625 4.296875 -5.171875 C 4.90625 -5.59375 5.15625 -6.125 5.15625 -6.53125 L 5.15625 -9.75 C 5.171875 -10.640625 6.84375 -10.453125 7.390625 -10.453125 C 7.515625 -10.453125 7.953125 -10.5625 7.953125 -11.078125 C 7.953125 -11.703125 7.484375 -11.71875 7.125 -11.71875 C 5.921875 -11.71875 3.78125 -11.4375 3.765625 -9.9375 L 3.75 -7.046875 C 3.75 -6.515625 3.75 -6.296875 3.234375 -6.0625 C 2.65625 -5.828125 1.84375 -5.8125 1.484375 -5.8125 C 1.359375 -5.8125 0.921875 -5.6875 0.921875 -5.1875 C 0.921875 -4.578125 1.40625 -4.546875 1.609375 -4.546875 C 2.015625 -4.515625 3.703125 -4.453125 3.75 -3.703125 L 3.75 -0.96875 C 3.75 -0.4375 3.765625 0.34375 4.671875 0.859375 C 5.390625 1.25 6.3125 1.375 7.125 1.375 C 7.484375 1.375 7.953125 1.359375 7.953125 0.734375 Z M 7.953125 0.734375 "/>
</g>
<g id="glyph-4-1">
<path d="M 8.859375 -1.65625 C 8.859375 -2.328125 8.390625 -2.328125 8.15625 -2.328125 C 7.9375 -2.328125 7.453125 -2.328125 7.453125 -1.484375 C 7.453125 -1.296875 7.40625 -1.078125 7.28125 -1.078125 C 6.9375 -1.078125 6.9375 -1.796875 6.9375 -2.59375 C 6.9375 -3.65625 6.9375 -3.796875 6.796875 -4.203125 C 6.625 -4.609375 6.3125 -4.921875 6.078125 -5.125 C 7.09375 -5.78125 7.40625 -6.78125 7.40625 -7.4375 C 7.40625 -8.921875 6.09375 -10.34375 4.0625 -10.34375 L 1.140625 -10.34375 C 0.8125 -10.34375 0.359375 -10.328125 0.359375 -9.703125 C 0.359375 -9.09375 0.828125 -9.078125 1.140625 -9.078125 L 1.421875 -9.078125 L 1.421875 -1.265625 L 1.140625 -1.265625 C 0.8125 -1.265625 0.359375 -1.25 0.359375 -0.625 C 0.359375 -0.015625 0.828125 0 1.140625 0 L 3.09375 0 C 3.40625 0 3.890625 -0.015625 3.890625 -0.625 C 3.890625 -1.25 3.421875 -1.265625 3.09375 -1.265625 L 2.828125 -1.265625 L 2.828125 -4.546875 L 3.984375 -4.546875 C 4.265625 -4.546875 4.75 -4.546875 5.234375 -4.109375 C 5.5625 -3.8125 5.5625 -3.453125 5.5625 -2.8125 C 5.5625 -1.6875 5.5625 -1.1875 5.875 -0.640625 C 6.1875 -0.109375 6.6875 0.1875 7.296875 0.1875 C 8.421875 0.1875 8.859375 -0.984375 8.859375 -1.65625 Z M 6 -7.4375 C 6 -6.6875 5.28125 -5.8125 3.875 -5.8125 L 2.8125 -5.8125 L 2.8125 -9.078125 L 3.875 -9.078125 C 5.296875 -9.078125 6 -8.1875 6 -7.4375 Z M 6 -7.4375 "/>
</g>
<g id="glyph-4-2">
<path d="M 7.75 -0.625 C 7.75 -1.25 7.25 -1.265625 6.9375 -1.265625 L 5.359375 -1.265625 L 5.359375 -6.578125 C 5.359375 -7.1875 5.234375 -7.390625 4.5625 -7.390625 L 2.21875 -7.390625 C 1.90625 -7.390625 1.40625 -7.34375 1.40625 -6.765625 C 1.40625 -6.125 1.90625 -6.109375 2.21875 -6.109375 L 3.953125 -6.109375 L 3.953125 -1.265625 L 2.078125 -1.265625 C 1.765625 -1.265625 1.265625 -1.25 1.265625 -0.625 C 1.265625 -0.015625 1.78125 0 2.078125 0 L 6.9375 0 C 7.25 0 7.75 -0.015625 7.75 -0.625 Z M 5.421875 -9.3125 C 5.421875 -9.84375 5 -10.265625 4.453125 -10.265625 C 3.90625 -10.265625 3.484375 -9.84375 3.484375 -9.3125 C 3.484375 -8.78125 3.90625 -8.34375 4.453125 -8.34375 C 5 -8.34375 5.421875 -8.78125 5.421875 -9.3125 Z M 5.421875 -9.3125 "/>
</g>
<g id="glyph-4-3">
<path d="M 7.90625 -1.9375 C 7.90625 -2.5 7.3125 -2.53125 7.203125 -2.53125 C 6.828125 -2.53125 6.671875 -2.453125 6.515625 -2.078125 C 6.1875 -1.296875 5.359375 -1.171875 4.921875 -1.171875 C 3.796875 -1.171875 2.65625 -1.890625 2.359375 -3.15625 L 7.109375 -3.15625 C 7.53125 -3.15625 7.90625 -3.15625 7.90625 -3.890625 C 7.90625 -5.84375 6.796875 -7.515625 4.578125 -7.515625 C 2.546875 -7.515625 0.875 -5.8125 0.875 -3.703125 C 0.875 -1.625 2.609375 0.109375 4.8125 0.109375 C 7.109375 0.109375 7.90625 -1.484375 7.90625 -1.9375 Z M 6.453125 -4.40625 L 2.375 -4.40625 C 2.640625 -5.46875 3.515625 -6.25 4.578125 -6.25 C 5.359375 -6.25 6.265625 -5.875 6.453125 -4.40625 Z M 6.453125 -4.40625 "/>
</g>
<g id="glyph-4-4">
<path d="M 7.828125 -2.203125 C 7.828125 -4 5.609375 -4.390625 5.046875 -4.46875 L 3.34375 -4.78125 C 2.890625 -4.875 2.4375 -5.0625 2.4375 -5.453125 C 2.4375 -5.84375 2.96875 -6.25 4.40625 -6.25 C 5.640625 -6.25 5.875 -5.84375 5.921875 -5.453125 C 5.9375 -5.109375 6 -4.78125 6.625 -4.78125 C 7.3125 -4.78125 7.328125 -5.1875 7.328125 -5.578125 L 7.328125 -6.71875 C 7.328125 -7.046875 7.296875 -7.515625 6.703125 -7.515625 C 6.328125 -7.515625 6.203125 -7.375 6.125 -7.234375 C 5.421875 -7.515625 4.75 -7.515625 4.4375 -7.515625 C 1.546875 -7.515625 1.171875 -6.0625 1.171875 -5.453125 C 1.171875 -3.859375 2.953125 -3.515625 4.546875 -3.28125 C 5.28125 -3.171875 6.5625 -2.96875 6.5625 -2.203125 C 6.5625 -1.625 5.96875 -1.171875 4.578125 -1.171875 C 3.84375 -1.171875 2.984375 -1.34375 2.59375 -2.546875 C 2.484375 -2.90625 2.40625 -3.109375 1.875 -3.109375 C 1.1875 -3.109375 1.171875 -2.703125 1.171875 -2.296875 L 1.171875 -0.71875 C 1.171875 -0.390625 1.1875 0.109375 1.796875 0.109375 C 1.96875 0.109375 2.25 0.109375 2.46875 -0.453125 C 3.265625 0.0625 4.09375 0.109375 4.5625 0.109375 C 7.28125 0.109375 7.828125 -1.375 7.828125 -2.203125 Z M 7.828125 -2.203125 "/>
</g>
<g id="glyph-4-5">
<path d="M 8.078125 -0.8125 L 8.078125 -1.765625 C 8.078125 -2.15625 8.0625 -2.578125 7.390625 -2.578125 C 6.6875 -2.578125 6.671875 -2.171875 6.671875 -1.765625 L 6.671875 -1.265625 L 2.703125 -1.265625 L 7.609375 -5.921875 C 8.015625 -6.296875 8.015625 -6.375 8.015625 -6.6875 C 8.015625 -7.375 7.59375 -7.390625 7.21875 -7.390625 L 1.59375 -7.390625 C 0.953125 -7.390625 0.78125 -7.21875 0.78125 -6.578125 L 0.78125 -5.8125 C 0.78125 -5.4375 0.796875 -5 1.46875 -5 C 2.1875 -5 2.1875 -5.40625 2.1875 -5.8125 L 2.1875 -6.109375 L 5.84375 -6.109375 L 0.9375 -1.453125 C 0.53125 -1.0625 0.53125 -1.015625 0.53125 -0.6875 C 0.53125 -0.015625 0.953125 0 1.34375 0 L 7.609375 0 C 8.0625 -0.125 8.078125 -0.515625 8.078125 -0.8125 Z M 8.078125 -0.8125 "/>
</g>
<g id="glyph-4-6">
<path d="M 8.234375 -2.90625 C 8.234375 -3.578125 7.734375 -3.578125 7.515625 -3.578125 C 7.328125 -3.578125 6.875 -3.578125 6.828125 -2.984375 C 6.71875 -1.453125 5.46875 -1.078125 4.828125 -1.078125 C 3.390625 -1.078125 2.046875 -2.796875 2.046875 -5.1875 C 2.046875 -7.546875 3.40625 -9.265625 4.8125 -9.265625 C 5.765625 -9.265625 6.609375 -8.53125 6.8125 -7.265625 C 6.875 -6.921875 6.921875 -6.625 7.515625 -6.625 C 8.21875 -6.625 8.234375 -7.03125 8.234375 -7.4375 L 8.234375 -9.71875 C 8.234375 -10.046875 8.21875 -10.53125 7.609375 -10.53125 C 7.28125 -10.53125 7.125 -10.328125 7.03125 -10.171875 C 7 -10.125 7 -10.09375 6.859375 -9.8125 C 6.296875 -10.234375 5.5625 -10.53125 4.765625 -10.53125 C 2.5625 -10.53125 0.640625 -8.265625 0.640625 -5.1875 C 0.640625 -2.078125 2.5625 0.1875 4.765625 0.1875 C 6.765625 0.1875 8.234375 -1.359375 8.234375 -2.90625 Z M 8.234375 -2.90625 "/>
</g>
<g id="glyph-4-7">
<path d="M 8.625 -0.625 C 8.625 -1.1875 8.28125 -1.265625 7.734375 -1.265625 L 7.734375 -9.078125 C 8.28125 -9.078125 8.625 -9.15625 8.625 -9.71875 C 8.625 -10.328125 8.125 -10.34375 7.828125 -10.34375 L 6.890625 -10.34375 C 6.140625 -10.34375 6.046875 -10.09375 5.875 -9.609375 L 4.4375 -5.09375 L 2.90625 -9.875 C 2.703125 -10.328125 2.25 -10.34375 1.984375 -10.34375 L 1.046875 -10.34375 C 0.75 -10.34375 0.25 -10.328125 0.25 -9.71875 C 0.25 -9.15625 0.59375 -9.078125 1.140625 -9.078125 L 1.140625 -1.265625 C 0.59375 -1.265625 0.25 -1.1875 0.25 -0.625 C 0.25 -0.015625 0.75 0 1.046875 0 L 2.40625 0 C 2.703125 0 3.203125 -0.015625 3.203125 -0.625 C 3.203125 -1.1875 2.859375 -1.265625 2.34375 -1.265625 L 2.34375 -8.1875 L 3.828125 -3.6875 C 3.96875 -3.5 4.203125 -3.375 4.4375 -3.375 C 4.6875 -3.375 4.984375 -3.515625 5.125 -3.8125 L 6.5625 -8.1875 L 6.5625 -1.265625 C 6.015625 -1.265625 5.671875 -1.1875 5.671875 -0.625 C 5.671875 -0.015625 6.171875 0 6.46875 0 L 7.828125 0 C 8.125 0 8.625 -0.015625 8.625 -0.625 Z M 8.625 -0.625 "/>
</g>
<g id="glyph-4-8">
<path d="M 8.296875 -0.8125 L 8.296875 -2.265625 C 8.296875 -2.671875 8.28125 -3.078125 7.609375 -3.078125 C 6.90625 -3.078125 6.890625 -2.6875 6.890625 -2.265625 L 6.890625 -1.265625 L 3.1875 -1.265625 L 3.1875 -9.078125 L 3.984375 -9.078125 C 4.25 -9.078125 4.78125 -9.09375 4.78125 -9.703125 C 4.78125 -10.328125 4.265625 -10.34375 3.984375 -10.34375 L 1.296875 -10.34375 C 0.984375 -10.34375 0.515625 -10.328125 0.515625 -9.703125 C 0.515625 -9.09375 1 -9.078125 1.296875 -9.078125 L 1.78125 -9.078125 L 1.78125 -1.265625 L 1.296875 -1.265625 C 0.984375 -1.265625 0.515625 -1.25 0.515625 -0.625 C 0.515625 -0.015625 1 0 1.296875 0 L 7.5 0 C 8.15625 0 8.296875 -0.171875 8.296875 -0.8125 Z M 8.296875 -0.8125 "/>
</g>
<g id="glyph-4-9">
<path d="M 7.953125 -5.171875 C 7.953125 -5.78125 7.46875 -5.8125 7.265625 -5.8125 C 6.890625 -5.828125 5.1875 -5.890625 5.15625 -6.65625 L 5.15625 -9.40625 C 5.15625 -9.90625 5.125 -10.6875 4.21875 -11.21875 C 3.40625 -11.65625 2.34375 -11.71875 1.75 -11.71875 C 1.40625 -11.71875 0.921875 -11.703125 0.921875 -11.078125 C 0.921875 -10.53125 1.296875 -10.453125 1.59375 -10.453125 C 3.71875 -10.421875 3.75 -9.90625 3.75 -9.40625 L 3.75 -6.765625 C 3.75 -6.09375 3.96875 -5.578125 4.578125 -5.1875 C 3.765625 -4.625 3.75 -3.875 3.75 -3.8125 L 3.75 -0.875 C 3.75 -0.421875 3.71875 0.0625 1.484375 0.109375 C 1.359375 0.109375 0.921875 0.21875 0.921875 0.734375 C 0.921875 1.359375 1.40625 1.375 1.75 1.375 C 3.25 1.375 5.125 0.71875 5.125 -0.40625 L 5.15625 -3.296875 C 5.15625 -3.828125 5.15625 -4.046875 5.65625 -4.28125 C 6.234375 -4.515625 7.015625 -4.546875 7.390625 -4.546875 C 7.515625 -4.546875 7.953125 -4.65625 7.953125 -5.171875 Z M 7.953125 -5.171875 "/>
</g>
</g>
<clipPath id="clip-0">
<path clip-rule="nonzero" d="M 0 0 L 135.550781 0 L 135.550781 156.058594 L 0 156.058594 Z M 0 0 "/>
</clipPath>
<clipPath id="clip-1">
<path clip-rule="nonzero" d="M 32 25 L 131 25 L 131 114 L 32 114 Z M 32 25 "/>
</clipPath>
<clipPath id="clip-2">
<path clip-rule="nonzero" d="M 67.777344 6.085938 L 5.46875 42.058594 L 5.46875 114 L 67.777344 149.972656 L 130.082031 114 L 130.082031 42.058594 Z M 67.777344 6.085938 "/>
</clipPath>
<clipPath id="clip-3">
<path clip-rule="nonzero" d="M 91 39 L 122 39 L 122 52 L 91 52 Z M 91 39 "/>
</clipPath>
<clipPath id="clip-4">
<path clip-rule="nonzero" d="M 67.777344 6.085938 L 5.46875 42.058594 L 5.46875 114 L 67.777344 149.972656 L 130.082031 114 L 130.082031 42.058594 Z M 67.777344 6.085938 "/>
</clipPath>
<clipPath id="clip-5">
<path clip-rule="nonzero" d="M 75 23 L 131 23 L 131 68 L 75 68 Z M 75 23 "/>
</clipPath>
<clipPath id="clip-6">
<path clip-rule="nonzero" d="M 67.777344 6.085938 L 5.46875 42.058594 L 5.46875 114 L 67.777344 149.972656 L 130.082031 114 L 130.082031 42.058594 Z M 67.777344 6.085938 "/>
</clipPath>
<clipPath id="clip-7">
<path clip-rule="nonzero" d="M 74 23 L 131 23 L 131 71 L 74 71 Z M 74 23 "/>
</clipPath>
<clipPath id="clip-8">
<path clip-rule="nonzero" d="M 67.777344 6.085938 L 5.46875 42.058594 L 5.46875 114 L 67.777344 149.972656 L 130.082031 114 L 130.082031 42.058594 Z M 67.777344 6.085938 "/>
</clipPath>
<clipPath id="clip-9">
<path clip-rule="nonzero" d="M 111 44 L 116 44 L 116 49 L 111 49 Z M 111 44 "/>
</clipPath>
<clipPath id="clip-10">
<path clip-rule="nonzero" d="M 67.777344 6.085938 L 5.46875 42.058594 L 5.46875 114 L 67.777344 149.972656 L 130.082031 114 L 130.082031 42.058594 Z M 67.777344 6.085938 "/>
</clipPath>
<clipPath id="clip-11">
<path clip-rule="nonzero" d="M 97 30 L 130 30 L 130 63 L 97 63 Z M 97 30 "/>
</clipPath>
<clipPath id="clip-12">
<path clip-rule="nonzero" d="M 67.777344 6.085938 L 5.46875 42.058594 L 5.46875 114 L 67.777344 149.972656 L 130.082031 114 L 130.082031 42.058594 Z M 67.777344 6.085938 "/>
</clipPath>
<clipPath id="clip-13">
<path clip-rule="nonzero" d="M 74 14 L 130 14 L 130 71 L 74 71 Z M 74 14 "/>
</clipPath>
<clipPath id="clip-14">
<path clip-rule="nonzero" d="M 67.777344 6.085938 L 5.46875 42.058594 L 5.46875 114 L 67.777344 149.972656 L 130.082031 114 L 130.082031 42.058594 Z M 67.777344 6.085938 "/>
</clipPath>
<clipPath id="clip-15">
<path clip-rule="nonzero" d="M 105 35 L 109 35 L 109 40 L 105 40 Z M 105 35 "/>
</clipPath>
<clipPath id="clip-16">
<path clip-rule="nonzero" d="M 67.777344 6.085938 L 5.46875 42.058594 L 5.46875 114 L 67.777344 149.972656 L 130.082031 114 L 130.082031 42.058594 Z M 67.777344 6.085938 "/>
</clipPath>
<clipPath id="clip-17">
<path clip-rule="nonzero" d="M 90 21 L 124 21 L 124 54 L 90 54 Z M 90 21 "/>
</clipPath>
<clipPath id="clip-18">
<path clip-rule="nonzero" d="M 67.777344 6.085938 L 5.46875 42.058594 L 5.46875 114 L 67.777344 149.972656 L 130.082031 114 L 130.082031 42.058594 Z M 67.777344 6.085938 "/>
</clipPath>
<clipPath id="clip-19">
<path clip-rule="nonzero" d="M 96 22 L 126 22 L 126 60 L 96 60 Z M 96 22 "/>
</clipPath>
<clipPath id="clip-20">
<path clip-rule="nonzero" d="M 67.777344 6.085938 L 5.46875 42.058594 L 5.46875 114 L 67.777344 149.972656 L 130.082031 114 L 130.082031 42.058594 Z M 67.777344 6.085938 "/>
</clipPath>
<clipPath id="clip-21">
<path clip-rule="nonzero" d="M 112 45 L 114 45 L 114 47 L 112 47 Z M 112 45 "/>
</clipPath>
<clipPath id="clip-22">
<path clip-rule="nonzero" d="M 67.777344 6.085938 L 5.46875 42.058594 L 5.46875 114 L 67.777344 149.972656 L 130.082031 114 L 130.082031 42.058594 Z M 67.777344 6.085938 "/>
</clipPath>
<clipPath id="clip-23">
<path clip-rule="nonzero" d="M 101 34 L 123 34 L 123 57 L 101 57 Z M 101 34 "/>
</clipPath>
<clipPath id="clip-24">
<path clip-rule="nonzero" d="M 67.777344 6.085938 L 5.46875 42.058594 L 5.46875 114 L 67.777344 149.972656 L 130.082031 114 L 130.082031 42.058594 Z M 67.777344 6.085938 "/>
</clipPath>
<clipPath id="clip-25">
<path clip-rule="nonzero" d="M 62 53 L 113 53 L 113 76 L 62 76 Z M 62 53 "/>
</clipPath>
<clipPath id="clip-26">
<path clip-rule="nonzero" d="M 67.777344 6.085938 L 5.46875 42.058594 L 5.46875 114 L 67.777344 149.972656 L 130.082031 114 L 130.082031 42.058594 Z M 67.777344 6.085938 "/>
</clipPath>
<clipPath id="clip-27">
<path clip-rule="nonzero" d="M 47 38 L 129 38 L 129 91 L 47 91 Z M 47 38 "/>
</clipPath>
<clipPath id="clip-28">
<path clip-rule="nonzero" d="M 67.777344 6.085938 L 5.46875 42.058594 L 5.46875 114 L 67.777344 149.972656 L 130.082031 114 L 130.082031 42.058594 Z M 67.777344 6.085938 "/>
</clipPath>
<clipPath id="clip-29">
<path clip-rule="nonzero" d="M 50 43 L 125 43 L 125 92 L 50 92 Z M 50 43 "/>
</clipPath>
<clipPath id="clip-30">
<path clip-rule="nonzero" d="M 67.777344 6.085938 L 5.46875 42.058594 L 5.46875 114 L 67.777344 149.972656 L 130.082031 114 L 130.082031 42.058594 Z M 67.777344 6.085938 "/>
</clipPath>
<clipPath id="clip-31">
<path clip-rule="nonzero" d="M 100 63 L 105 63 L 105 68 L 100 68 Z M 100 63 "/>
</clipPath>
<clipPath id="clip-32">
<path clip-rule="nonzero" d="M 67.777344 6.085938 L 5.46875 42.058594 L 5.46875 114 L 67.777344 149.972656 L 130.082031 114 L 130.082031 42.058594 Z M 67.777344 6.085938 "/>
</clipPath>
<clipPath id="clip-33">
<path clip-rule="nonzero" d="M 86 49 L 119 49 L 119 82 L 86 82 Z M 86 49 "/>
</clipPath>
<clipPath id="clip-34">
<path clip-rule="nonzero" d="M 67.777344 6.085938 L 5.46875 42.058594 L 5.46875 114 L 67.777344 149.972656 L 130.082031 114 L 130.082031 42.058594 Z M 67.777344 6.085938 "/>
</clipPath>
<clipPath id="clip-35">
<path clip-rule="nonzero" d="M 50 26 L 114 26 L 114 92 L 50 92 Z M 50 26 "/>
</clipPath>
<clipPath id="clip-36">
<path clip-rule="nonzero" d="M 67.777344 6.085938 L 5.46875 42.058594 L 5.46875 114 L 67.777344 149.972656 L 130.082031 114 L 130.082031 42.058594 Z M 67.777344 6.085938 "/>
</clipPath>
<clipPath id="clip-37">
<path clip-rule="nonzero" d="M 89 47 L 93 47 L 93 52 L 89 52 Z M 89 47 "/>
</clipPath>
<clipPath id="clip-38">
<path clip-rule="nonzero" d="M 67.777344 6.085938 L 5.46875 42.058594 L 5.46875 114 L 67.777344 149.972656 L 130.082031 114 L 130.082031 42.058594 Z M 67.777344 6.085938 "/>
</clipPath>
<clipPath id="clip-39">
<path clip-rule="nonzero" d="M 74 33 L 108 33 L 108 66 L 74 66 Z M 74 33 "/>
</clipPath>
<clipPath id="clip-40">
<path clip-rule="nonzero" d="M 67.777344 6.085938 L 5.46875 42.058594 L 5.46875 114 L 67.777344 149.972656 L 130.082031 114 L 130.082031 42.058594 Z M 67.777344 6.085938 "/>
</clipPath>
<clipPath id="clip-41">
<path clip-rule="nonzero" d="M 80 33 L 112 33 L 112 79 L 80 79 Z M 80 33 "/>
</clipPath>
<clipPath id="clip-42">
<path clip-rule="nonzero" d="M 67.777344 6.085938 L 5.46875 42.058594 L 5.46875 114 L 67.777344 149.972656 L 130.082031 114 L 130.082031 42.058594 Z M 67.777344 6.085938 "/>
</clipPath>
<clipPath id="clip-43">
<path clip-rule="nonzero" d="M 97 65 L 100 65 L 100 67 L 97 67 Z M 97 65 "/>
</clipPath>
<clipPath id="clip-44">
<path clip-rule="nonzero" d="M 67.777344 6.085938 L 5.46875 42.058594 L 5.46875 114 L 67.777344 149.972656 L 130.082031 114 L 130.082031 42.058594 Z M 67.777344 6.085938 "/>
</clipPath>
<clipPath id="clip-45">
<path clip-rule="nonzero" d="M 86 53 L 109 53 L 109 77 L 86 77 Z M 86 53 "/>
</clipPath>
<clipPath id="clip-46">
<path clip-rule="nonzero" d="M 67.777344 6.085938 L 5.46875 42.058594 L 5.46875 114 L 67.777344 149.972656 L 130.082031 114 L 130.082031 42.058594 Z M 67.777344 6.085938 "/>
</clipPath>
<clipPath id="clip-47">
<path clip-rule="nonzero" d="M 16 74 L 100 74 L 100 111 L 16 111 Z M 16 74 "/>
</clipPath>
<clipPath id="clip-48">
<path clip-rule="nonzero" d="M 67.777344 6.085938 L 5.46875 42.058594 L 5.46875 114 L 67.777344 149.972656 L 130.082031 114 L 130.082031 42.058594 Z M 67.777344 6.085938 "/>
</clipPath>
<clipPath id="clip-49">
<path clip-rule="nonzero" d="M 5 58 L 116 58 L 116 126 L 5 126 Z M 5 58 "/>
</clipPath>
<clipPath id="clip-50">
<path clip-rule="nonzero" d="M 67.777344 6.085938 L 5.46875 42.058594 L 5.46875 114 L 67.777344 149.972656 L 130.082031 114 L 130.082031 42.058594 Z M 67.777344 6.085938 "/>
</clipPath>
<clipPath id="clip-51">
<path clip-rule="nonzero" d="M 11 71 L 107 71 L 107 123 L 11 123 Z M 11 71 "/>
</clipPath>
<clipPath id="clip-52">
<path clip-rule="nonzero" d="M 67.777344 6.085938 L 5.46875 42.058594 L 5.46875 114 L 67.777344 149.972656 L 130.082031 114 L 130.082031 42.058594 Z M 67.777344 6.085938 "/>
</clipPath>
<clipPath id="clip-53">
<path clip-rule="nonzero" d="M 82 92 L 87 92 L 87 96 L 82 96 Z M 82 92 "/>
</clipPath>
<clipPath id="clip-54">
<path clip-rule="nonzero" d="M 67.777344 6.085938 L 5.46875 42.058594 L 5.46875 114 L 67.777344 149.972656 L 130.082031 114 L 130.082031 42.058594 Z M 67.777344 6.085938 "/>
</clipPath>
<clipPath id="clip-55">
<path clip-rule="nonzero" d="M 68 77 L 101 77 L 101 110 L 68 110 Z M 68 77 "/>
</clipPath>
<clipPath id="clip-56">
<path clip-rule="nonzero" d="M 67.777344 6.085938 L 5.46875 42.058594 L 5.46875 114 L 67.777344 149.972656 L 130.082031 114 L 130.082031 42.058594 Z M 67.777344 6.085938 "/>
</clipPath>
<clipPath id="clip-57">
<path clip-rule="nonzero" d="M 11 42 L 88 42 L 88 123 L 11 123 Z M 11 42 "/>
</clipPath>
<clipPath id="clip-58">
<path clip-rule="nonzero" d="M 67.777344 6.085938 L 5.46875 42.058594 L 5.46875 114 L 67.777344 149.972656 L 130.082031 114 L 130.082031 42.058594 Z M 67.777344 6.085938 "/>
</clipPath>
<clipPath id="clip-59">
<path clip-rule="nonzero" d="M 63 63 L 68 63 L 68 68 L 63 68 Z M 63 63 "/>
</clipPath>
<clipPath id="clip-60">
<path clip-rule="nonzero" d="M 67.777344 6.085938 L 5.46875 42.058594 L 5.46875 114 L 67.777344 149.972656 L 130.082031 114 L 130.082031 42.058594 Z M 67.777344 6.085938 "/>
</clipPath>
<clipPath id="clip-61">
<path clip-rule="nonzero" d="M 49 49 L 82 49 L 82 82 L 49 82 Z M 49 49 "/>
</clipPath>
<clipPath id="clip-62">
<path clip-rule="nonzero" d="M 67.777344 6.085938 L 5.46875 42.058594 L 5.46875 114 L 67.777344 149.972656 L 130.082031 114 L 130.082031 42.058594 Z M 67.777344 6.085938 "/>
</clipPath>
<clipPath id="clip-63">
<path clip-rule="nonzero" d="M 55 49 L 89 49 L 89 108 L 55 108 Z M 55 49 "/>
</clipPath>
<clipPath id="clip-64">
<path clip-rule="nonzero" d="M 67.777344 6.085938 L 5.46875 42.058594 L 5.46875 114 L 67.777344 149.972656 L 130.082031 114 L 130.082031 42.058594 Z M 67.777344 6.085938 "/>
</clipPath>
<clipPath id="clip-65">
<path clip-rule="nonzero" d="M 74 93 L 78 93 L 78 97 L 74 97 Z M 74 93 "/>
</clipPath>
<clipPath id="clip-66">
<path clip-rule="nonzero" d="M 67.777344 6.085938 L 5.46875 42.058594 L 5.46875 114 L 67.777344 149.972656 L 130.082031 114 L 130.082031 42.058594 Z M 67.777344 6.085938 "/>
</clipPath>
<clipPath id="clip-67">
<path clip-rule="nonzero" d="M 61 80 L 87 80 L 87 106 L 61 106 Z M 61 80 "/>
</clipPath>
<clipPath id="clip-68">
<path clip-rule="nonzero" d="M 67.777344 6.085938 L 5.46875 42.058594 L 5.46875 114 L 67.777344 149.972656 L 130.082031 114 L 130.082031 42.058594 Z M 67.777344 6.085938 "/>
</clipPath>
<clipPath id="clip-69">
<path clip-rule="nonzero" d="M 59 55 L 65 55 L 65 65 L 59 65 Z M 59 55 "/>
</clipPath>
<clipPath id="clip-70">
<path clip-rule="nonzero" d="M 67.777344 6.085938 L 5.46875 42.058594 L 5.46875 114 L 67.777344 149.972656 L 130.082031 114 L 130.082031 42.058594 Z M 67.777344 6.085938 "/>
</clipPath>
<clipPath id="clip-71">
<path clip-rule="nonzero" d="M 83 98 L 90 98 L 90 103 L 83 103 Z M 83 98 "/>
</clipPath>
<clipPath id="clip-72">
<path clip-rule="nonzero" d="M 67.777344 6.085938 L 5.46875 42.058594 L 5.46875 114 L 67.777344 149.972656 L 130.082031 114 L 130.082031 42.058594 Z M 67.777344 6.085938 "/>
</clipPath>
<clipPath id="clip-73">
<path clip-rule="nonzero" d="M 25 36 L 35 36 L 35 45 L 25 45 Z M 25 36 "/>
</clipPath>
<clipPath id="clip-74">
<path clip-rule="nonzero" d="M 67.777344 6.085938 L 5.46875 42.058594 L 5.46875 114 L 67.777344 149.972656 L 130.082031 114 L 130.082031 42.058594 Z M 67.777344 6.085938 "/>
</clipPath>
<clipPath id="clip-75">
<path clip-rule="nonzero" d="M 35 36 L 40 36 L 40 45 L 35 45 Z M 35 36 "/>
</clipPath>
<clipPath id="clip-76">
<path clip-rule="nonzero" d="M 67.777344 6.085938 L 5.46875 42.058594 L 5.46875 114 L 67.777344 149.972656 L 130.082031 114 L 130.082031 42.058594 Z M 67.777344 6.085938 "/>
</clipPath>
<clipPath id="clip-77">
<path clip-rule="nonzero" d="M 40 36 L 43 36 L 43 45 L 40 45 Z M 40 36 "/>
</clipPath>
<clipPath id="clip-78">
<path clip-rule="nonzero" d="M 67.777344 6.085938 L 5.46875 42.058594 L 5.46875 114 L 67.777344 149.972656 L 130.082031 114 L 130.082031 42.058594 Z M 67.777344 6.085938 "/>
</clipPath>
<clipPath id="clip-79">
<path clip-rule="nonzero" d="M 46 39 L 52 39 L 52 42 L 46 42 Z M 46 39 "/>
</clipPath>
<clipPath id="clip-80">
<path clip-rule="nonzero" d="M 67.777344 6.085938 L 5.46875 42.058594 L 5.46875 114 L 67.777344 149.972656 L 130.082031 114 L 130.082031 42.058594 Z M 67.777344 6.085938 "/>
</clipPath>
<clipPath id="clip-81">
<path clip-rule="nonzero" d="M 55 36 L 58 36 L 58 45 L 55 45 Z M 55 36 "/>
</clipPath>
<clipPath id="clip-82">
<path clip-rule="nonzero" d="M 67.777344 6.085938 L 5.46875 42.058594 L 5.46875 114 L 67.777344 149.972656 L 130.082031 114 L 130.082031 42.058594 Z M 67.777344 6.085938 "/>
</clipPath>
<clipPath id="clip-83">
<path clip-rule="nonzero" d="M 58 39 L 66 39 L 66 45 L 58 45 Z M 58 39 "/>
</clipPath>
<clipPath id="clip-84">
<path clip-rule="nonzero" d="M 67.777344 6.085938 L 5.46875 42.058594 L 5.46875 114 L 67.777344 149.972656 L 130.082031 114 L 130.082031 42.058594 Z M 67.777344 6.085938 "/>
</clipPath>
<clipPath id="clip-85">
<path clip-rule="nonzero" d="M 67 36 L 72 36 L 72 45 L 67 45 Z M 67 36 "/>
</clipPath>
<clipPath id="clip-86">
<path clip-rule="nonzero" d="M 67.777344 6.085938 L 5.46875 42.058594 L 5.46875 114 L 67.777344 149.972656 L 130.082031 114 L 130.082031 42.058594 Z M 67.777344 6.085938 "/>
</clipPath>
<clipPath id="clip-87">
<path clip-rule="nonzero" d="M 72 36 L 75 36 L 75 45 L 72 45 Z M 72 36 "/>
</clipPath>
<clipPath id="clip-88">
<path clip-rule="nonzero" d="M 67.777344 6.085938 L 5.46875 42.058594 L 5.46875 114 L 67.777344 149.972656 L 130.082031 114 L 130.082031 42.058594 Z M 67.777344 6.085938 "/>
</clipPath>
</defs>
<path fill-rule="nonzero" fill="rgb(9.411621%, 10.978699%, 22.744751%)" fill-opacity="1" d="M 67.777344 1.492188 L 1.492188 39.761719 L 1.492188 116.296875 L 67.777344 154.566406 L 134.058594 116.296875 L 134.058594 39.761719 Z M 67.777344 1.492188 "/>
<g clip-path="url(#clip-0)">
<path fill="none" stroke-width="2.98883" stroke-linecap="butt" stroke-linejoin="miter" stroke="rgb(65.879822%, 71.372986%, 90.979004%)" stroke-opacity="1" stroke-miterlimit="10" d="M 0.00134375 76.536812 L -66.283812 38.267281 L -66.283812 -38.267875 L 0.00134375 -76.537406 L 66.282594 -38.267875 L 66.282594 38.267281 Z M 0.00134375 76.536812 " transform="matrix(1, 0, 0, -1, 67.776, 78.029)"/>
</g>
<g clip-path="url(#clip-1)">
<g clip-path="url(#clip-2)">
<path fill="none" stroke-width="0.79701" stroke-linecap="round" stroke-linejoin="miter" stroke="rgb(54.902649%, 61.175537%, 86.274719%)" stroke-opacity="0.35" stroke-dasharray="0.79701 2.59032" stroke-miterlimit="10" d="M -24.096312 -24.096 L 52.44275 41.103219 " transform="matrix(1, 0, 0, -1, 67.776, 78.029)"/>
</g>
</g>
<g clip-path="url(#clip-3)">
<g clip-path="url(#clip-4)">
<path fill-rule="nonzero" fill="rgb(21.961975%, 25.881958%, 47.059631%)" fill-opacity="0.38249" d="M 91.042969 51.859375 L 112.472656 49.207031 L 121.046875 39 L 99.617188 41.652344 Z M 91.042969 51.859375 "/>
</g>
</g>
<g clip-path="url(#clip-5)">
<g clip-path="url(#clip-6)">
<path fill="none" stroke-width="1.0959" stroke-linecap="butt" stroke-linejoin="miter" stroke="rgb(54.902649%, 61.175537%, 86.274719%)" stroke-opacity="0.45" stroke-miterlimit="10" d="M 23.266969 26.169625 L 44.696656 28.821969 L 53.270875 39.029 L 31.841188 36.376656 Z M 23.266969 26.169625 " transform="matrix(1, 0, 0, -1, 67.776, 78.029)"/>
</g>
</g>
<g clip-path="url(#clip-7)">
<g clip-path="url(#clip-8)">
<path fill="none" stroke-width="1.59404" stroke-linecap="round" stroke-linejoin="miter" stroke="rgb(95.684814%, 77.253723%, 36.471558%)" stroke-opacity="0.45" stroke-miterlimit="10" d="M 29.595094 29.739937 L 45.325563 31.728219 " transform="matrix(1, 0, 0, -1, 67.776, 78.029)"/>
</g>
</g>
<g clip-path="url(#clip-9)">
<g clip-path="url(#clip-10)">
<path fill-rule="nonzero" fill="rgb(95.684814%, 77.253723%, 36.471558%)" fill-opacity="0.45" d="M 115.640625 45.980469 L 111.984375 44.675781 L 113.351562 46.269531 L 112.421875 48.152344 Z M 115.640625 45.980469 "/>
</g>
</g>
<g clip-path="url(#clip-11)">
<g clip-path="url(#clip-12)">
<path fill="none" stroke-width="1.00871" stroke-linecap="round" stroke-linejoin="miter" stroke="rgb(95.684814%, 77.253723%, 36.471558%)" stroke-opacity="0.45" stroke-miterlimit="10" d="M 4.849733 -0.00107878 L 1.385715 1.751496 L 2.542448 -0.00103816 L 1.384145 -1.752552 Z M 4.849733 -0.00107878 " transform="matrix(0.9921, -0.1253, -0.1253, -0.9921, 110.82907, 46.58707)"/>
</g>
</g>
<g clip-path="url(#clip-13)">
<g clip-path="url(#clip-14)">
<path fill="none" stroke-width="1.59404" stroke-linecap="round" stroke-linejoin="miter" stroke="rgb(66.665649%, 83.921814%, 100%)" stroke-opacity="0.45" stroke-miterlimit="10" d="M 29.595094 29.739937 L 39.372438 40.579781 " transform="matrix(1, 0, 0, -1, 67.776, 78.029)"/>
</g>
</g>
<g clip-path="url(#clip-15)">
<g clip-path="url(#clip-16)">
<path fill-rule="nonzero" fill="rgb(66.665649%, 83.921814%, 100%)" fill-opacity="0.45" d="M 108.859375 35.550781 L 105.238281 36.949219 L 107.316406 37.261719 L 107.839844 39.296875 Z M 108.859375 35.550781 "/>
</g>
</g>
<g clip-path="url(#clip-17)">
<g clip-path="url(#clip-18)">
<path fill="none" stroke-width="1.00871" stroke-linecap="round" stroke-linejoin="miter" stroke="rgb(66.665649%, 83.921814%, 100%)" stroke-opacity="0.45" stroke-miterlimit="10" d="M 4.849586 0.00165531 L 1.385386 1.753446 L 2.545548 0.00109752 L 1.385121 -1.750958 Z M 4.849586 0.00165531 " transform="matrix(0.66986, -0.74242, -0.74242, -0.66986, 105.61206, 39.15232)"/>
</g>
</g>
<g clip-path="url(#clip-19)">
<g clip-path="url(#clip-20)">
<path fill="none" stroke-width="0.89664" stroke-linecap="round" stroke-linejoin="miter" stroke="rgb(94.119263%, 91.764832%, 83.921814%)" stroke-opacity="0.40498" stroke-dasharray="2.59032 2.1918" stroke-miterlimit="10" d="M 41.841188 43.314156 L 44.899781 31.681344 " transform="matrix(1, 0, 0, -1, 67.776, 78.029)"/>
</g>
</g>
<g clip-path="url(#clip-21)">
<g clip-path="url(#clip-22)">
<path fill-rule="nonzero" fill="rgb(95.684814%, 77.253723%, 36.471558%)" fill-opacity="0.45" d="M 113.238281 46.347656 C 113.238281 46.039062 112.988281 45.789062 112.675781 45.789062 C 112.367188 45.789062 112.117188 46.039062 112.117188 46.347656 C 112.117188 46.660156 112.367188 46.910156 112.675781 46.910156 C 112.988281 46.910156 113.238281 46.660156 113.238281 46.347656 Z M 113.238281 46.347656 "/>
</g>
</g>
<g clip-path="url(#clip-23)">
<g clip-path="url(#clip-24)">
<path fill="none" stroke-width="0.69739" stroke-linecap="butt" stroke-linejoin="miter" stroke="rgb(94.119263%, 91.764832%, 83.921814%)" stroke-opacity="0.38249" stroke-miterlimit="10" d="M 43.266969 31.478219 L 43.266969 33.111031 L 44.899781 33.314156 " transform="matrix(1, 0, 0, -1, 67.776, 78.029)"/>
</g>
</g>
<g clip-path="url(#clip-25)">
<g clip-path="url(#clip-26)">
<path fill-rule="nonzero" fill="rgb(21.961975%, 25.881958%, 47.059631%)" fill-opacity="0.57799" d="M 62.617188 75.136719 L 98.332031 70.714844 L 112.621094 53.707031 L 76.902344 58.128906 Z M 62.617188 75.136719 "/>
</g>
</g>
<g clip-path="url(#clip-27)">
<g clip-path="url(#clip-28)">
<path fill="none" stroke-width="1.0959" stroke-linecap="butt" stroke-linejoin="miter" stroke="rgb(54.902649%, 61.175537%, 86.274719%)" stroke-opacity="0.68" stroke-miterlimit="10" d="M -5.158812 2.892281 L 30.556031 7.314156 L 44.845094 24.321969 L 9.126344 19.900094 Z M -5.158812 2.892281 " transform="matrix(1, 0, 0, -1, 67.776, 78.029)"/>
</g>
</g>
<g clip-path="url(#clip-29)">
<g clip-path="url(#clip-30)">
<path fill="none" stroke-width="1.59404" stroke-linecap="round" stroke-linejoin="miter" stroke="rgb(95.684814%, 77.253723%, 36.471558%)" stroke-opacity="0.68" stroke-miterlimit="10" d="M 5.384156 8.845406 L 34.044313 12.4665 " transform="matrix(1, 0, 0, -1, 67.776, 78.029)"/>
</g>
</g>
<g clip-path="url(#clip-31)">
<g clip-path="url(#clip-32)">
<path fill-rule="nonzero" fill="rgb(95.684814%, 77.253723%, 36.471558%)" fill-opacity="0.68" d="M 104.359375 65.242188 L 100.699219 63.941406 L 102.070312 65.53125 L 101.140625 67.417969 Z M 104.359375 65.242188 "/>
</g>
</g>
<g clip-path="url(#clip-33)">
<g clip-path="url(#clip-34)">
<path fill="none" stroke-width="1.00871" stroke-linecap="round" stroke-linejoin="miter" stroke="rgb(95.684814%, 77.253723%, 36.471558%)" stroke-opacity="0.68" stroke-miterlimit="10" d="M 4.850938 0.00146455 L 1.382534 1.750761 L 2.543613 0.00155675 L 1.384761 -1.753837 Z M 4.850938 0.00146455 " transform="matrix(0.99208, -0.12532, -0.12532, -0.99208, 99.54704, 65.85156)"/>
</g>
</g>
<g clip-path="url(#clip-35)">
<g clip-path="url(#clip-36)">
<path fill="none" stroke-width="1.59404" stroke-linecap="round" stroke-linejoin="miter" stroke="rgb(66.665649%, 83.921814%, 100%)" stroke-opacity="0.68" stroke-miterlimit="10" d="M 5.384156 8.845406 L 23.325563 28.732125 " transform="matrix(1, 0, 0, -1, 67.776, 78.029)"/>
</g>
</g>
<g clip-path="url(#clip-37)">
<g clip-path="url(#clip-38)">
<path fill-rule="nonzero" fill="rgb(66.665649%, 83.921814%, 100%)" fill-opacity="0.68" d="M 92.816406 47.398438 L 89.195312 48.800781 L 91.273438 49.113281 L 91.796875 51.148438 Z M 92.816406 47.398438 "/>
</g>
</g>
<g clip-path="url(#clip-39)">
<g clip-path="url(#clip-40)">
<path fill="none" stroke-width="1.00871" stroke-linecap="round" stroke-linejoin="miter" stroke="rgb(66.665649%, 83.921814%, 100%)" stroke-opacity="0.68" stroke-miterlimit="10" d="M 4.850759 0.000973747 L 1.383658 1.750147 L 2.54382 -0.00220095 L 1.383393 -1.754257 Z M 4.850759 0.000973747 " transform="matrix(0.66986, -0.74242, -0.74242, -0.66986, 89.5678, 51.00039)"/>
</g>
</g>
<g clip-path="url(#clip-41)">
<g clip-path="url(#clip-42)">
<path fill="none" stroke-width="0.89664" stroke-linecap="round" stroke-linejoin="miter" stroke="rgb(94.119263%, 91.764832%, 83.921814%)" stroke-opacity="0.61198" stroke-dasharray="2.59032 2.1918" stroke-miterlimit="10" d="M 25.794313 31.4665 L 30.899781 12.075875 " transform="matrix(1, 0, 0, -1, 67.776, 78.029)"/>
</g>
</g>
<g clip-path="url(#clip-43)">
<g clip-path="url(#clip-44)">
<path fill-rule="nonzero" fill="rgb(95.684814%, 77.253723%, 36.471558%)" fill-opacity="0.68" d="M 99.609375 65.953125 C 99.609375 65.4375 99.191406 65.019531 98.675781 65.019531 C 98.15625 65.019531 97.738281 65.4375 97.738281 65.953125 C 97.738281 66.46875 98.15625 66.886719 98.675781 66.886719 C 99.191406 66.886719 99.609375 66.46875 99.609375 65.953125 Z M 99.609375 65.953125 "/>
</g>
</g>
<g clip-path="url(#clip-45)">
<g clip-path="url(#clip-46)">
<path fill="none" stroke-width="0.69739" stroke-linecap="butt" stroke-linejoin="miter" stroke="rgb(94.119263%, 91.764832%, 83.921814%)" stroke-opacity="0.57799" stroke-miterlimit="10" d="M 28.177125 11.736031 L 28.177125 14.458687 L 30.899781 14.798531 " transform="matrix(1, 0, 0, -1, 67.776, 78.029)"/>
</g>
</g>
<g clip-path="url(#clip-47)">
<g clip-path="url(#clip-48)">
<path fill-rule="nonzero" fill="rgb(21.961975%, 25.881958%, 47.059631%)" fill-opacity="0.85" d="M 16.183594 110.0625 L 75.714844 102.691406 L 99.523438 74.34375 L 39.996094 81.714844 Z M 16.183594 110.0625 "/>
</g>
</g>
<g clip-path="url(#clip-49)">
<g clip-path="url(#clip-50)">
<path fill="none" stroke-width="1.0959" stroke-linecap="butt" stroke-linejoin="miter" stroke="rgb(54.902649%, 61.175537%, 86.274719%)" stroke-opacity="1" stroke-miterlimit="10" d="M -51.592406 -32.0335 L 7.938844 -24.662406 L 31.747438 3.68525 L -27.779906 -3.685844 Z M -51.592406 -32.0335 " transform="matrix(1, 0, 0, -1, 67.776, 78.029)"/>
</g>
</g>
<g clip-path="url(#clip-51)">
<g clip-path="url(#clip-52)">
<path fill="none" stroke-width="1.59404" stroke-linecap="round" stroke-linejoin="miter" stroke="rgb(95.684814%, 77.253723%, 36.471558%)" stroke-opacity="1" stroke-miterlimit="10" d="M -34.018187 -22.111625 L 16.184938 -15.767875 " transform="matrix(1, 0, 0, -1, 67.776, 78.029)"/>
</g>
</g>
<g clip-path="url(#clip-53)">
<g clip-path="url(#clip-54)">
<path fill-rule="nonzero" fill="rgb(95.684814%, 77.253723%, 36.471558%)" fill-opacity="1" d="M 86.5 93.476562 L 82.84375 92.171875 L 84.210938 93.765625 L 83.28125 95.648438 Z M 86.5 93.476562 "/>
</g>
</g>
<g clip-path="url(#clip-55)">
<g clip-path="url(#clip-56)">
<path fill="none" stroke-width="1.00871" stroke-linecap="round" stroke-linejoin="miter" stroke="rgb(95.684814%, 77.253723%, 36.471558%)" stroke-opacity="1" stroke-miterlimit="10" d="M 4.850168 0.000807888 L 1.386149 1.753382 L 2.542883 0.000848515 L 1.38458 -1.750666 Z M 4.850168 0.000807888 " transform="matrix(0.9921, -0.1253, -0.1253, -0.9921, 81.68825, 94.08509)"/>
</g>
</g>
<g clip-path="url(#clip-57)">
<g clip-path="url(#clip-58)">
<path fill="none" stroke-width="1.59404" stroke-linecap="round" stroke-linejoin="miter" stroke="rgb(66.665649%, 83.921814%, 100%)" stroke-opacity="1" stroke-miterlimit="10" d="M -34.018187 -22.111625 L -2.467406 12.853219 " transform="matrix(1, 0, 0, -1, 67.776, 78.029)"/>
</g>
</g>
<g clip-path="url(#clip-59)">
<g clip-path="url(#clip-60)">
<path fill-rule="nonzero" fill="rgb(66.665649%, 83.921814%, 100%)" fill-opacity="1" d="M 67.019531 63.277344 L 63.398438 64.675781 L 65.476562 64.988281 L 66 67.023438 Z M 67.019531 63.277344 "/>
</g>
</g>
<g clip-path="url(#clip-61)">
<g clip-path="url(#clip-62)">
<path fill="none" stroke-width="1.00871" stroke-linecap="round" stroke-linejoin="miter" stroke="rgb(66.665649%, 83.921814%, 100%)" stroke-opacity="1" stroke-miterlimit="10" d="M 4.847792 -0.000524524 L 1.383591 1.751266 L 2.543754 -0.00108231 L 1.383327 -1.753138 Z M 4.847792 -0.000524524 " transform="matrix(0.66986, -0.74242, -0.74242, -0.66986, 63.7718, 66.87609)"/>
</g>
</g>
<g clip-path="url(#clip-63)">
<g clip-path="url(#clip-64)">
<path fill="none" stroke-width="0.89664" stroke-linecap="round" stroke-linejoin="miter" stroke="rgb(94.119263%, 91.764832%, 83.921814%)" stroke-opacity="0.9" stroke-dasharray="2.59032 2.1918" stroke-miterlimit="10" d="M 0.00134375 15.5915 L 8.50525 -16.724906 " transform="matrix(1, 0, 0, -1, 67.776, 78.029)"/>
</g>
</g>
<g clip-path="url(#clip-65)">
<g clip-path="url(#clip-66)">
<path fill-rule="nonzero" fill="rgb(95.684814%, 77.253723%, 36.471558%)" fill-opacity="1" d="M 77.839844 94.753906 C 77.839844 93.890625 77.140625 93.195312 76.28125 93.195312 C 75.417969 93.195312 74.722656 93.890625 74.722656 94.753906 C 74.722656 95.613281 75.417969 96.3125 76.28125 96.3125 C 77.140625 96.3125 77.839844 95.613281 77.839844 94.753906 Z M 77.839844 94.753906 "/>
</g>
</g>
<g clip-path="url(#clip-67)">
<g clip-path="url(#clip-68)">
<path fill="none" stroke-width="0.69739" stroke-linecap="butt" stroke-linejoin="miter" stroke="rgb(94.119263%, 91.764832%, 83.921814%)" stroke-opacity="0.85" stroke-miterlimit="10" d="M 3.966188 -17.291313 L 3.966188 -12.756156 L 8.50525 -12.18975 " transform="matrix(1, 0, 0, -1, 67.776, 78.029)"/>
</g>
</g>
<g clip-path="url(#clip-69)">
<g clip-path="url(#clip-70)">
<g fill="rgb(66.665649%, 83.921814%, 100%)" fill-opacity="1">
<use xlink:href="#glyph-0-0" x="58.565" y="62.094"/>
</g>
</g>
</g>
<g clip-path="url(#clip-71)">
<g clip-path="url(#clip-72)">
<g fill="rgb(95.684814%, 77.253723%, 36.471558%)" fill-opacity="1">
<use xlink:href="#glyph-0-1" x="83.563" y="102.851"/>
</g>
</g>
</g>
<g clip-path="url(#clip-73)">
<g clip-path="url(#clip-74)">
<g fill="rgb(94.119263%, 91.764832%, 83.921814%)" fill-opacity="0.92">
<use xlink:href="#glyph-1-0" x="25.375" y="42.604"/>
<use xlink:href="#glyph-1-1" x="31.961491" y="42.604"/>
</g>
</g>
</g>
<g clip-path="url(#clip-75)">
<g clip-path="url(#clip-76)">
<g fill="rgb(94.119263%, 91.764832%, 83.921814%)" fill-opacity="0.92">
<use xlink:href="#glyph-2-0" x="35.254" y="42.604"/>
</g>
</g>
</g>
<g clip-path="url(#clip-77)">
<g clip-path="url(#clip-78)">
<g fill="rgb(94.119263%, 91.764832%, 83.921814%)" fill-opacity="0.92">
<use xlink:href="#glyph-1-2" x="40.201" y="42.604"/>
</g>
</g>
</g>
<g clip-path="url(#clip-79)">
<g clip-path="url(#clip-80)">
<g fill="rgb(94.119263%, 91.764832%, 83.921814%)" fill-opacity="0.92">
<use xlink:href="#glyph-1-3" x="45.845425" y="42.604"/>
</g>
</g>
</g>
<g clip-path="url(#clip-81)">
<g clip-path="url(#clip-82)">
<g fill="rgb(94.119263%, 91.764832%, 83.921814%)" fill-opacity="0.92">
<use xlink:href="#glyph-3-0" x="54.785" y="42.604"/>
</g>
</g>
</g>
<g clip-path="url(#clip-83)">
<g clip-path="url(#clip-84)">
<g fill="rgb(94.119263%, 91.764832%, 83.921814%)" fill-opacity="0.92">
<use xlink:href="#glyph-2-1" x="58.079" y="42.604"/>
<use xlink:href="#glyph-2-2" x="63.517796" y="42.604"/>
</g>
</g>
</g>
<g clip-path="url(#clip-85)">
<g clip-path="url(#clip-86)">
<g fill="rgb(94.119263%, 91.764832%, 83.921814%)" fill-opacity="0.92">
<use xlink:href="#glyph-2-0" x="67.28048" y="42.604"/>
</g>
</g>
</g>
<g clip-path="url(#clip-87)">
<g clip-path="url(#clip-88)">
<g fill="rgb(94.119263%, 91.764832%, 83.921814%)" fill-opacity="0.92">
<use xlink:href="#glyph-3-1" x="72.228" y="42.604"/>
</g>
</g>
</g>
<g fill="rgb(94.119263%, 91.764832%, 83.921814%)" fill-opacity="1">
<use xlink:href="#glyph-4-0" x="23.318" y="125.659"/>
<use xlink:href="#glyph-4-1" x="32.209662" y="125.659"/>
<use xlink:href="#glyph-4-2" x="41.101325" y="125.659"/>
<use xlink:href="#glyph-4-3" x="49.992987" y="125.659"/>
<use xlink:href="#glyph-4-4" x="58.88465" y="125.659"/>
<use xlink:href="#glyph-4-5" x="67.776312" y="125.659"/>
</g>
<g fill="rgb(95.684814%, 77.253723%, 36.471558%)" fill-opacity="1">
<use xlink:href="#glyph-4-6" x="76.667975" y="125.659"/>
<use xlink:href="#glyph-4-7" x="85.559637" y="125.659"/>
<use xlink:href="#glyph-4-8" x="94.4513" y="125.659"/>
</g>
<g fill="rgb(94.119263%, 91.764832%, 83.921814%)" fill-opacity="1">
<use xlink:href="#glyph-4-9" x="103.342962" y="125.659"/>
</g>
</svg>
